<?xml version="1.0" standalone="no"?>
<!DOCTYPE svg PUBLIC "-//W3C//DTD SVG 20010904//EN"
 "http://www.w3.org/TR/2001/REC-SVG-20010904/DTD/svg10.dtd">
<svg version="1.0" xmlns="http://www.w3.org/2000/svg"
 width="512.000000pt" height="512.000000pt" viewBox="0 0 512.000000 512.000000"
 preserveAspectRatio="xMidYMid meet">
<metadata>
Created by potrace 1.11, written by Peter Selinger 2001-2013
</metadata>
<g transform="translate(0.000000,512.000000) scale(0.100000,-0.100000)"
fill="#000000" stroke="none">
<path d="M3890 4871 c-99 -31 -160 -75 -215 -155 -112 -164 -88 -376 57 -512
231 -216 614 -80 656 232 6 47 9 360 3 437 -1 17 -16 18 -224 16 -178 -1 -233
-5 -277 -18z"/>
<path d="M178 4438 c-4 -11 -3 -140 1 -159 0 -3 39 -7 86 -7 l85 -1 0 89 0 90
-84 0 c-58 0 -85 -4 -88 -12z"/>
<path d="M529 4448 c0 -2 -1 -41 -1 -88 l-1 -85 569 0 569 0 3 88 3 87 -571 0
c-313 0 -570 -1 -571 -2z"/>
<path d="M1948 3938 c-184 -183 -342 -347 -351 -363 -86 -166 79 -343 248
-266 22 10 47 24 55 32 8 8 138 121 287 252 l273 238 301 -85 c166 -47 304
-88 307 -90 3 -4 -111 -260 -310 -696 -17 -36 -50 -110 -75 -165 -41 -90 -98
-177 -332 -510 -19 -27 -101 -144 -182 -260 -117 -167 -164 -225 -230 -285
-45 -41 -87 -80 -93 -85 -6 -6 -44 -39 -85 -75 -41 -36 -88 -78 -106 -95 -17
-16 -69 -64 -115 -105 -229 -205 -274 -248 -291 -282 -77 -151 28 -328 196
-328 28 0 68 9 90 19 22 10 159 116 305 235 146 119 321 263 390 318 69 56
245 221 393 367 147 146 272 267 277 269 5 2 109 -72 232 -164 123 -92 278
-208 345 -258 l123 -91 -5 -45 c-3 -25 -8 -63 -10 -85 -3 -22 -7 -51 -10 -65
-7 -39 -14 -81 -20 -135 -3 -27 -10 -77 -15 -110 -5 -33 -12 -76 -14 -95 -3
-19 -19 -134 -36 -255 -34 -234 -33 -273 2 -337 39 -69 114 -108 200 -104 69
3 132 37 170 91 33 46 30 33 173 800 l96 510 -43 40 c-24 22 -108 97 -188 165
-79 69 -151 132 -160 140 -8 8 -82 73 -163 143 -81 71 -147 130 -147 132 0 2
4 14 10 27 5 13 48 131 95 263 47 132 95 263 105 290 11 28 44 120 75 205 31
85 60 159 64 163 5 5 15 -1 23 -12 9 -12 30 -38 49 -59 19 -20 61 -68 94 -107
33 -38 62 -72 65 -75 6 -6 337 -384 364 -416 l18 -21 301 134 c166 73 319 145
339 160 55 37 92 118 86 186 -5 62 -30 117 -71 158 -47 47 -85 63 -157 63 -62
1 -73 -3 -237 -85 l-172 -86 -18 24 c-10 13 -128 171 -263 351 l-245 327 -265
177 c-234 156 -271 178 -315 183 -27 3 -57 8 -65 10 -8 2 -35 7 -60 10 -25 3
-58 8 -75 11 -16 3 -46 7 -65 10 -19 2 -61 9 -93 15 -33 6 -73 12 -90 14 -18
2 -50 6 -72 10 -22 3 -51 8 -65 10 -29 5 -93 15 -130 20 -32 4 -110 17 -130
20 -8 1 -35 6 -60 10 -25 4 -52 9 -60 10 -9 2 -41 6 -71 10 l-55 7 -336 -334z"/>
<path d="M0 3658 l0 -88 350 0 c273 0 350 3 351 13 1 15 1 138 0 153 -1 7
-111 10 -351 10 l-350 0 0 -88z"/>
<path d="M879 3733 c0 -7 -1 -29 -1 -48 0 -19 1 -53 1 -75 l1 -40 84 0 c58 0
85 4 88 13 2 6 4 46 3 87 l0 75 -88 1 c-66 1 -87 -3 -88 -13z"/>
<path d="M444 3041 c-2 -2 -4 -42 -4 -88 l0 -83 58 -1 c71 0 745 0 789 0 l32
1 -1 79 c0 43 -3 82 -7 87 -6 9 -858 13 -867 5z"/>
<path d="M174 2258 c1 -46 4 -85 7 -88 4 -3 340 -5 746 -5 l738 0 3 88 3 87
-748 0 -749 0 0 -82z"/>
<path d="M0 1548 l0 -89 88 3 87 3 0 85 0 85 -87 1 -88 2 0 -90z"/>
<path d="M355 1632 c-3 -3 -5 -43 -5 -88 l0 -83 349 0 c269 -1 350 2 353 12 2
6 4 46 3 87 l0 75 -347 1 c-191 1 -350 -1 -353 -4z"/>
<path d="M179 930 c-6 -25 -3 -162 3 -166 6 -4 437 -7 576 -5 l32 1 0 88 0 87
-305 0 c-168 0 -306 -2 -306 -5z"/>
</g>
</svg>
